# xmcd
#
# Track frame offsets: 
#        182
#        11632
#        23745
#        38350
#        53185
#        66707
#        80740
#        101652
#        114592
#        128200
#        141185
#        151232
#
# Disc length: 2211 seconds
#
# Revision: 1
# Processed by: cddbd v1.5.2PL0 Copyright (c) Steve Scherf et al.
# Submitted via: ExactAudioCopy v0.99pb4
#
DISCID=9f08a10c
DTITLE=Blue Ridge Rangers, The - The Blue Ridge Rangers
DYEAR=1973
DGENRE=General Country
TTITLE0=Blue Ridge Mountain Blues
TTITLE1=Somewhere Listening
TTITLE2=You're The Reason
TTITLE3=Jambalaya
TTITLE4=She Thinks I Still Care
TTITLE5=California Blues (Blue Yodel #4)
TTITLE6=Workin' On A Building
TTITLE7=Please Help Me I'm Falling
TTITLE8=Have Thine Own Way
TTITLE9=I Ain't Never
TTITLE10=Hearts Of Stone
TTITLE11=Today I Started Loving You Again
EXTD=
EXTT0=
EXTT1=
EXTT2=
EXTT3=
EXTT4=
EXTT5=
EXTT6=
EXTT7=
EXTT8=
EXTT9=
EXTT10=
EXTT11=
PLAYORDER=
